<svg width="32" height="32" viewBox="0 0 40 40" fill="none" xmlns="http://www.w3.org/2000/svg">
  <rect width="40" height="40" rx="8" fill="#0D1520"/>
  <rect x="0.75" y="0.75" width="38.5" height="38.5" rx="7.5" stroke="#F0B429" stroke-width="1.5" stroke-opacity="0.5"/>
  <line x1="7" y1="15" x2="7" y2="27" stroke="#2D3F52" stroke-width="1" stroke-linecap="round"/>
  <rect x="5.5" y="18" width="3" height="6" rx="0.5" fill="#2D3F52"/>
  <line x1="13" y1="14" x2="13" y2="27" stroke="#2D3F52" stroke-width="1" stroke-linecap="round"/>
  <rect x="11.5" y="17" width="3" height="7" rx="0.5" fill="#2D3F52"/>
  <line x1="19" y1="9" x2="19" y2="12" stroke="#F0B429" stroke-width="1.2" stroke-linecap="round"/>
  <rect x="17" y="12" width="4" height="13" rx="0.5" fill="#F0B429"/>
  <line x1="19" y1="25" x2="19" y2="28" stroke="#F0B429" stroke-width="1.2" stroke-linecap="round"/>
  <line x1="25" y1="13" x2="25" y2="24" stroke="#2D3F52" stroke-width="1" stroke-linecap="round"/>
  <rect x="23.5" y="14" width="3" height="6" rx="0.5" fill="#2D3F52"/>
  <line x1="31" y1="11" x2="31" y2="22" stroke="#2D3F52" stroke-width="1" stroke-linecap="round"/>
  <rect x="29.5" y="12" width="3" height="7" rx="0.5" fill="#2D3F52"/>
  <path d="M 3,25 C 12,21 23,15 37,9" stroke="#F0B429" stroke-width="1.2" fill="none" stroke-linecap="round"/>
  <circle cx="10" cy="22" r="1.8" fill="#F0B429"/>
</svg>
